<svg width="18" height="18" viewBox="0 0 18 18" fill="none" xmlns="http://www.w3.org/2000/svg">
<path d="M17.6332 13.4686C17.1018 13.0235 13.9852 11.0528 13.4672 11.1432C13.224 11.1863 13.0379 11.3934 12.5399 11.9865C12.3097 12.2785 12.0568 12.552 11.7836 12.8044C11.2831 12.6836 10.7986 12.5043 10.3402 12.2701C8.54245 11.3961 7.09013 9.94541 6.21543 8.15C5.98088 7.69226 5.80129 7.20845 5.68038 6.70864C5.93315 6.43585 6.20698 6.18331 6.49937 5.95336C7.09279 5.45611 7.30073 5.27154 7.34389 5.02746C7.43449 4.50896 5.45906 1.39796 5.01521 0.867321C4.82916 0.647536 4.66014 0.5 4.44369 0.5C3.81622 0.5 0.978027 4.00443 0.978027 4.45857C0.978027 4.49561 1.03883 8.14393 5.65302 12.8317C10.3475 17.4393 14.001 17.5 14.0381 17.5C14.4929 17.5 18.0023 14.6659 18.0023 14.0393C18.0023 13.8231 17.8546 13.6544 17.6332 13.4686Z" fill="black"/>
<path d="M13.7491 8.3923H14.9652C14.9637 7.10455 14.4508 5.86996 13.5389 4.95938C12.627 4.0488 11.3907 3.5366 10.1011 3.53516V4.74944C11.0683 4.75041 11.9956 5.13452 12.6796 5.81748C13.3635 6.50043 13.7482 7.42645 13.7491 8.3923Z" fill="black"/>
<path d="M16.7892 8.39286H18.0052C18.0028 6.30028 17.1693 4.2941 15.6875 2.81443C14.2057 1.33475 12.1966 0.50241 10.1011 0.5V1.71429C11.8742 1.71637 13.5742 2.42068 14.828 3.6727C16.0818 4.92472 16.7871 6.62223 16.7892 8.39286Z" fill="black"/>
</svg>
